<svg width="40" height="41" viewBox="0 0 40 41" fill="none" xmlns="http://www.w3.org/2000/svg">
<path d="M32.9957 31.0934L21.8067 20.3809L32.9957 9.66836C33.0021 9.6612 33.0089 9.65442 33.016 9.64805C33.3654 9.29842 33.6033 8.85307 33.6997 8.36827C33.7961 7.88347 33.7466 7.38098 33.5575 6.92431C33.3683 6.46763 33.0481 6.07727 32.6372 5.80255C32.2263 5.52783 31.7431 5.38109 31.2488 5.38086H8.74884C8.25456 5.38109 7.77143 5.52783 7.36052 5.80255C6.94961 6.07727 6.62936 6.46763 6.44024 6.92431C6.25111 7.38098 6.20161 7.88347 6.29797 8.36827C6.39434 8.85307 6.63226 9.29842 6.98165 9.64805C6.98881 9.65442 6.99559 9.6612 7.00197 9.66836L18.191 20.3809L7.00197 31.0934C6.99559 31.1005 6.98881 31.1073 6.98165 31.1137C6.63226 31.4633 6.39434 31.9087 6.29797 32.3935C6.20161 32.8783 6.25111 33.3807 6.44024 33.8374C6.62936 34.2941 6.94961 34.6844 7.36052 34.9592C7.77143 35.2339 8.25456 35.3806 8.74884 35.3809H31.2488C31.7433 35.3809 32.2266 35.2344 32.6378 34.9598C33.0489 34.6852 33.3694 34.2949 33.5587 33.8381C33.748 33.3814 33.7977 32.8788 33.7014 32.3938C33.605 31.9089 33.3671 31.4634 33.0176 31.1137C33.0099 31.1073 33.0026 31.1006 32.9957 31.0934ZM24.7192 26.6309H15.2785L19.9988 22.1121L24.7192 26.6309ZM31.2488 7.88086L19.9988 18.6496L8.74884 7.88086H31.2488Z" fill="#00875F"/>
</svg>
